<?xml version="1.0" encoding="UTF-8" standalone="no"?><svg xmlns="http://www.w3.org/2000/svg" xmlns:xlink="http://www.w3.org/1999/xlink" contentStyleType="text/css" height="1475px" preserveAspectRatio="none" style="width:1750px;height:1475px;background:#FFFFFF;" version="1.1" viewBox="0 0 1750 1475" width="1750px" zoomAndPan="magnify"><defs/><g><!--cluster model--><g id="cluster_model"><path d="M8.5,335 L59.5,335 A3.75,3.75 0 0 1 62,337.5 L69,357.2969 L1097.5,357.2969 A2.5,2.5 0 0 1 1100,359.7969 L1100,1465.5 A2.5,2.5 0 0 1 1097.5,1468 L8.5,1468 A2.5,2.5 0 0 1 6,1465.5 L6,337.5 A2.5,2.5 0 0 1 8.5,335 " fill="none" style="stroke:#000000;stroke-width:1.5;"/><line style="stroke:#000000;stroke-width:1.5;" x1="6" x2="69" y1="357.2969" y2="357.2969"/><text fill="#000000" font-family="sans-serif" font-size="14" font-weight="bold" lengthAdjust="spacing" textLength="50" x="10" y="349.9951">model</text></g><!--cluster view--><g id="cluster_view"><path d="M1126.5,449 L1164.5,449 A3.75,3.75 0 0 1 1167,451.5 L1174,471.2969 L1547.5,471.2969 A2.5,2.5 0 0 1 1550,473.7969 L1550,539.5 A2.5,2.5 0 0 1 1547.5,542 L1126.5,542 A2.5,2.5 0 0 1 1124,539.5 L1124,451.5 A2.5,2.5 0 0 1 1126.5,449 " fill="none" style="stroke:#000000;stroke-width:1.5;"/><line style="stroke:#000000;stroke-width:1.5;" x1="1124" x2="1174" y1="471.2969" y2="471.2969"/><text fill="#000000" font-family="sans-serif" font-size="14" font-weight="bold" lengthAdjust="spacing" textLength="37" x="1128" y="463.9951">view</text></g><!--cluster controller--><g id="cluster_controller"><path d="M781.5,6 L861.5,6 A3.75,3.75 0 0 1 864,8.5 L871,28.2969 L1740.5,28.2969 A2.5,2.5 0 0 1 1743,30.7969 L1743,308.5 A2.5,2.5 0 0 1 1740.5,311 L781.5,311 A2.5,2.5 0 0 1 779,308.5 L779,8.5 A2.5,2.5 0 0 1 781.5,6 " fill="none" style="stroke:#000000;stroke-width:1.5;"/><line style="stroke:#000000;stroke-width:1.5;" x1="779" x2="871" y1="28.2969" y2="28.2969"/><text fill="#000000" font-family="sans-serif" font-size="14" font-weight="bold" lengthAdjust="spacing" textLength="79" x="783" y="20.9951">controller</text></g><!--class CellInfo--><g id="elem_CellInfo"><rect codeLine="7" fill="#F1F1F1" height="123.7813" id="CellInfo" rx="2.5" ry="2.5" style="stroke:#181818;stroke-width:0.5;" width="126" x="596" y="1287.5"/><text fill="#000000" font-family="sans-serif" font-size="14" font-weight="bold" lengthAdjust="spacing" textLength="63" x="627.5" y="1305.4951">«enum»</text><text fill="#000000" font-family="sans-serif" font-size="14" font-weight="bold" lengthAdjust="spacing" textLength="61" x="628.5" y="1321.792">CellInfo</text><line style="stroke:#181818;stroke-width:0.5;" x1="597" x2="721" y1="1330.0938" y2="1330.0938"/><text fill="#000000" font-family="sans-serif" font-size="14" font-weight="bold" lengthAdjust="spacing" textLength="112" x="602" y="1347.0889">WELL_PLACED</text><text fill="#000000" font-family="sans-serif" font-size="14" font-weight="bold" lengthAdjust="spacing" textLength="108" x="602" y="1363.3857">GOOD_COLOR</text><text fill="#000000" font-family="sans-serif" font-size="14" font-weight="bold" lengthAdjust="spacing" textLength="114" x="602" y="1379.6826">NOT_PRESENT</text><text fill="#000000" font-family="sans-serif" font-size="14" font-weight="bold" lengthAdjust="spacing" textLength="46" x="602" y="1395.9795">NONE</text><line style="stroke:#181818;stroke-width:0.5;" x1="597" x2="721" y1="1403.2813" y2="1403.2813"/></g><!--class CluesMode--><g id="elem_CluesMode"><rect codeLine="15" fill="#F1F1F1" height="107.4844" id="CluesMode" rx="2.5" ry="2.5" style="stroke:#181818;stroke-width:0.5;" width="140" x="22" y="765.5"/><text fill="#000000" font-family="sans-serif" font-size="14" font-weight="bold" lengthAdjust="spacing" textLength="63" x="60.5" y="783.4951">«enum»</text><text fill="#000000" font-family="sans-serif" font-size="14" font-weight="bold" lengthAdjust="spacing" textLength="87" x="48.5" y="799.792">CluesMode</text><line style="stroke:#181818;stroke-width:0.5;" x1="23" x2="161" y1="808.0938" y2="808.0938"/><text fill="#000000" font-family="sans-serif" font-size="14" font-weight="bold" lengthAdjust="spacing" textLength="96" x="28" y="825.0889">EASY_MODE</text><text fill="#000000" font-family="sans-serif" font-size="14" font-weight="bold" lengthAdjust="spacing" textLength="120" x="28" y="841.3857">CLASSIC_MODE</text><text fill="#000000" font-family="sans-serif" font-size="14" font-weight="bold" lengthAdjust="spacing" textLength="128" x="28" y="857.6826">NUMERIC_MODE</text><line style="stroke:#181818;stroke-width:0.5;" x1="23" x2="161" y1="864.9844" y2="864.9844"/></g><!--class GameColor--><g id="elem_GameColor"><rect codeLine="22" fill="#F1F1F1" height="205.2656" id="GameColor" rx="2.5" ry="2.5" style="stroke:#181818;stroke-width:0.5;" width="93" x="352.5" y="1247"/><text fill="#000000" font-family="sans-serif" font-size="14" font-weight="bold" lengthAdjust="spacing" textLength="63" x="367.5" y="1264.9951">«enum»</text><text fill="#000000" font-family="sans-serif" font-size="14" font-weight="bold" lengthAdjust="spacing" textLength="87" x="355.5" y="1281.292">GameColor</text><line style="stroke:#181818;stroke-width:0.5;" x1="353.5" x2="444.5" y1="1289.5938" y2="1289.5938"/><text fill="#000000" font-family="sans-serif" font-size="14" font-weight="bold" lengthAdjust="spacing" textLength="33" x="358.5" y="1306.5889">RED</text><text fill="#000000" font-family="sans-serif" font-size="14" font-weight="bold" lengthAdjust="spacing" textLength="54" x="358.5" y="1322.8857">GREEN</text><text fill="#000000" font-family="sans-serif" font-size="14" font-weight="bold" lengthAdjust="spacing" textLength="41" x="358.5" y="1339.1826">BLUE</text><text fill="#000000" font-family="sans-serif" font-size="14" font-weight="bold" lengthAdjust="spacing" textLength="65" x="358.5" y="1355.4795">YELLOW</text><text fill="#000000" font-family="sans-serif" font-size="14" font-weight="bold" lengthAdjust="spacing" textLength="67" x="358.5" y="1371.7764">ORANGE</text><text fill="#000000" font-family="sans-serif" font-size="14" font-weight="bold" lengthAdjust="spacing" textLength="38" x="358.5" y="1388.0732">PINK</text><text fill="#000000" font-family="sans-serif" font-size="14" font-weight="bold" lengthAdjust="spacing" textLength="42" x="358.5" y="1404.3701">GREY</text><text fill="#000000" font-family="sans-serif" font-size="14" font-weight="bold" lengthAdjust="spacing" textLength="52" x="358.5" y="1420.667">WHITE</text><text fill="#000000" font-family="sans-serif" font-size="14" font-weight="bold" lengthAdjust="spacing" textLength="46" x="358.5" y="1436.9639">NONE</text><line style="stroke:#181818;stroke-width:0.5;" x1="353.5" x2="444.5" y1="1444.2656" y2="1444.2656"/></g><!--class MasterMindBoard--><g id="elem_MasterMindBoard"><rect codeLine="35" fill="#F1F1F1" height="237.8594" id="MasterMindBoard" rx="2.5" ry="2.5" style="stroke:#181818;stroke-width:0.5;" width="849" x="234.5" y="700"/><text fill="#000000" font-family="sans-serif" font-size="14" font-weight="bold" lengthAdjust="spacing" textLength="141" x="588.5" y="717.9951">MasterMindBoard</text><line style="stroke:#181818;stroke-width:0.5;" x1="235.5" x2="1082.5" y1="726.2969" y2="726.2969"/><text fill="#000000" font-family="sans-serif" font-size="14" font-weight="bold" lengthAdjust="spacing" textLength="158" x="240.5" y="743.292">-lineCount : Integer</text><text fill="#000000" font-family="sans-serif" font-size="14" font-weight="bold" lengthAdjust="spacing" textLength="144" x="240.5" y="759.5889">-lineSize : Integer</text><text fill="#000000" font-family="sans-serif" font-size="14" font-weight="bold" lengthAdjust="spacing" textLength="174" x="240.5" y="775.8857">-currentLine : Integer</text><text fill="#000000" font-family="sans-serif" font-size="14" font-weight="bold" lengthAdjust="spacing" textLength="249" x="240.5" y="792.1826">+getBoard : MasterMindLine[*]</text><line style="stroke:#181818;stroke-width:0.5;" x1="235.5" x2="1082.5" y1="799.4844" y2="799.4844"/><text fill="#000000" font-family="sans-serif" font-size="14" font-weight="bold" lengthAdjust="spacing" textLength="837" x="240.5" y="816.4795">+«create»MasterMindBoard( lineSize:Integer, lineCount:Integer, availableColors : ArrayList&lt;GameColor)</text><text fill="#000000" font-family="sans-serif" font-size="14" font-weight="bold" lengthAdjust="spacing" textLength="175" x="240.5" y="832.7764">+nextLine() : Boolean</text><text fill="#000000" font-family="sans-serif" font-size="14" font-weight="bold" lengthAdjust="spacing" textLength="246" x="240.5" y="849.0732">+verifyCurrentLine() : Boolean</text><text fill="#000000" font-family="sans-serif" font-size="14" font-weight="bold" lengthAdjust="spacing" textLength="348" x="240.5" y="865.3701">+getSecretCombination() : MasterMindLine</text><text fill="#000000" font-family="sans-serif" font-size="14" font-weight="bold" lengthAdjust="spacing" textLength="290" x="240.5" y="881.667">+getCurrentLine() : MasterMindLine</text><text fill="#000000" font-family="sans-serif" font-size="14" font-weight="bold" lengthAdjust="spacing" textLength="265" x="240.5" y="897.9639">+getIndexCurrentLine() : Integer</text><text fill="#000000" font-family="sans-serif" font-size="14" font-weight="bold" lengthAdjust="spacing" textLength="244" x="240.5" y="914.2607">-generateSecretCombination()</text><text fill="#000000" font-family="sans-serif" font-size="14" font-weight="bold" lengthAdjust="spacing" textLength="180" x="240.5" y="930.5576">-generateBoardLines()</text></g><!--class MasterMindLine--><g id="elem_MasterMindLine"><rect codeLine="77" fill="#F1F1F1" height="188.9688" id="MasterMindLine" rx="2.5" ry="2.5" style="stroke:#181818;stroke-width:0.5;" width="448" x="435" y="998"/><text fill="#000000" font-family="sans-serif" font-size="14" font-weight="bold" lengthAdjust="spacing" textLength="128" x="595" y="1015.9951">MasterMindLine</text><line style="stroke:#181818;stroke-width:0.5;" x1="436" x2="882" y1="1024.2969" y2="1024.2969"/><text fill="#000000" font-family="sans-serif" font-size="14" font-weight="bold" lengthAdjust="spacing" textLength="102" x="441" y="1041.292">-size:Integer</text><line style="stroke:#181818;stroke-width:0.5;" x1="436" x2="882" y1="1048.5938" y2="1048.5938"/><text fill="#000000" font-family="sans-serif" font-size="14" font-weight="bold" lengthAdjust="spacing" textLength="317" x="441" y="1065.5889">+«create»MasterMindLine(size:Integer)</text><text fill="#000000" font-family="sans-serif" font-size="14" font-weight="bold" lengthAdjust="spacing" textLength="436" x="441" y="1081.8857">+verify(secretCombination:MasterMindLine) : Boolean</text><text fill="#000000" font-family="sans-serif" font-size="14" font-weight="bold" lengthAdjust="spacing" textLength="335" x="441" y="1098.1826">+getCellColor(index:Integer) : GameColor</text><text fill="#000000" font-family="sans-serif" font-size="14" font-weight="bold" lengthAdjust="spacing" textLength="373" x="441" y="1114.4795">+setCellColor(color:GameColor, index:Integer)</text><text fill="#000000" font-family="sans-serif" font-size="14" font-weight="bold" lengthAdjust="spacing" textLength="213" x="441" y="1130.7764">+getWellPlaced() : Integer</text><text fill="#000000" font-family="sans-serif" font-size="14" font-weight="bold" lengthAdjust="spacing" textLength="219" x="441" y="1147.0732">+getWellChosen() : Integer</text><text fill="#000000" font-family="sans-serif" font-size="14" font-weight="bold" lengthAdjust="spacing" textLength="220" x="441" y="1163.3701">+getWrongColor() : Integer</text><text fill="#000000" font-family="sans-serif" font-size="14" font-weight="bold" lengthAdjust="spacing" textLength="211" x="441" y="1179.667">+getCells() : GameColor[*]</text></g><!--class MasterMindGame--><g id="elem_MasterMindGame"><rect codeLine="55" fill="#F1F1F1" height="270.4531" id="MasterMindGame" rx="2.5" ry="2.5" style="stroke:#181818;stroke-width:0.5;" width="978" x="64" y="370"/><text fill="#000000" font-family="sans-serif" font-size="14" font-weight="bold" lengthAdjust="spacing" textLength="139" x="483.5" y="387.9951">MasterMindGame</text><line style="stroke:#181818;stroke-width:0.5;" x1="65" x2="1041" y1="396.2969" y2="396.2969"/><text fill="#000000" font-family="sans-serif" font-size="14" font-weight="bold" lengthAdjust="spacing" textLength="142" x="70" y="413.292">-nbRoud : Integer</text><text fill="#000000" font-family="sans-serif" font-size="14" font-weight="bold" lengthAdjust="spacing" textLength="124" x="70" y="429.5889">-score : Integer</text><text fill="#000000" font-family="sans-serif" font-size="14" font-weight="bold" lengthAdjust="spacing" textLength="127" x="70" y="445.8857">-nbTry : Integer</text><text fill="#000000" font-family="sans-serif" font-size="14" font-weight="bold" lengthAdjust="spacing" textLength="144" x="70" y="462.1826">-lineSize : Integer</text><text fill="#000000" font-family="sans-serif" font-size="14" font-weight="bold" lengthAdjust="spacing" textLength="168" x="70" y="478.4795">-colorCount : Integer</text><text fill="#000000" font-family="sans-serif" font-size="14" font-weight="bold" lengthAdjust="spacing" textLength="167" x="70" y="494.7764">-playerName : String</text><line style="stroke:#181818;stroke-width:0.5;" x1="65" x2="1041" y1="502.0781" y2="502.0781"/><text fill="#000000" font-family="sans-serif" font-size="14" font-weight="bold" lengthAdjust="spacing" textLength="966" x="70" y="519.0732">+«create»MasterMindBoard(playerName : String, nbRoud : Integer, lineSize  Integer, colorCount:Integer, nbTry:Integer)</text><text fill="#000000" font-family="sans-serif" font-size="14" font-weight="bold" lengthAdjust="spacing" textLength="339" x="70" y="535.3701">+getMasterMindBoard():MasterMindBoard</text><text fill="#000000" font-family="sans-serif" font-size="14" font-weight="bold" lengthAdjust="spacing" textLength="296" x="70" y="551.667">+getAvailableColors() : GameColor[*]</text><text fill="#000000" font-family="sans-serif" font-size="14" font-weight="bold" lengthAdjust="spacing" textLength="125" x="70" y="567.9639">+updateScore()</text><text fill="#000000" font-family="sans-serif" font-size="14" font-weight="bold" lengthAdjust="spacing" textLength="294" x="70" y="584.2607">+generateListAvailableGameColors()</text><text fill="#000000" font-family="sans-serif" font-size="14" font-weight="bold" lengthAdjust="spacing" textLength="183" x="70" y="600.5576">+generateNewRound()</text><text fill="#000000" font-family="sans-serif" font-size="14" font-weight="bold" lengthAdjust="spacing" textLength="171" x="70" y="616.8545">+getScore() : Integer</text><text fill="#000000" font-family="sans-serif" font-size="14" font-weight="bold" lengthAdjust="spacing" textLength="324" x="70" y="633.1514">+setCluesMode(cluesMode : CluesMode)</text></g><!--class StartWindow--><g id="elem_StartWindow"><rect codeLine="96" fill="#F1F1F1" height="42.2969" id="StartWindow" rx="2.5" ry="2.5" style="stroke:#181818;stroke-width:0.5;" width="109" x="1424.5" y="484"/><text fill="#000000" font-family="sans-serif" font-size="14" font-weight="bold" lengthAdjust="spacing" textLength="103" x="1427.5" y="501.9951">StartWindow</text><line style="stroke:#181818;stroke-width:0.5;" x1="1425.5" x2="1532.5" y1="510.2969" y2="510.2969"/><line style="stroke:#181818;stroke-width:0.5;" x1="1425.5" x2="1532.5" y1="518.2969" y2="518.2969"/></g><!--class GameWindow--><g id="elem_GameWindow"><rect codeLine="99" fill="#F1F1F1" height="42.2969" id="GameWindow" rx="2.5" ry="2.5" style="stroke:#181818;stroke-width:0.5;" width="114" x="1275" y="484"/><text fill="#000000" font-family="sans-serif" font-size="14" font-weight="bold" lengthAdjust="spacing" textLength="108" x="1278" y="501.9951">GameWindow</text><line style="stroke:#181818;stroke-width:0.5;" x1="1276" x2="1388" y1="510.2969" y2="510.2969"/><line style="stroke:#181818;stroke-width:0.5;" x1="1276" x2="1388" y1="518.2969" y2="518.2969"/></g><!--class EndWindow--><g id="elem_EndWindow"><rect codeLine="102" fill="#F1F1F1" height="42.2969" id="EndWindow" rx="2.5" ry="2.5" style="stroke:#181818;stroke-width:0.5;" width="99" x="1140.5" y="484"/><text fill="#000000" font-family="sans-serif" font-size="14" font-weight="bold" lengthAdjust="spacing" textLength="93" x="1143.5" y="501.9951">EndWindow</text><line style="stroke:#181818;stroke-width:0.5;" x1="1141.5" x2="1238.5" y1="510.2969" y2="510.2969"/><line style="stroke:#181818;stroke-width:0.5;" x1="1141.5" x2="1238.5" y1="518.2969" y2="518.2969"/></g><!--class GameMasterController--><g id="elem_GameMasterController"><rect codeLine="109" fill="#F1F1F1" height="254.1563" id="GameMasterController" rx="2.5" ry="2.5" style="stroke:#181818;stroke-width:0.5;" width="932" x="795" y="41"/><text fill="#000000" font-family="sans-serif" font-size="14" font-weight="bold" lengthAdjust="spacing" textLength="181" x="1170.5" y="58.9951">GameMasterController</text><line style="stroke:#181818;stroke-width:0.5;" x1="796" x2="1726" y1="67.2969" y2="67.2969"/><line style="stroke:#181818;stroke-width:0.5;" x1="796" x2="1726" y1="75.2969" y2="75.2969"/><text fill="#000000" font-family="sans-serif" font-size="14" font-weight="bold" lengthAdjust="spacing" textLength="142" x="801" y="92.292">+startNewGame()</text><text fill="#000000" font-family="sans-serif" font-size="14" font-weight="bold" lengthAdjust="spacing" textLength="920" x="801" y="108.5889">+launchGame(playerName : String, nbRound : Integer, lineSize : Integer, lineCount : Integer, colorCount : Integer)</text><text fill="#000000" font-family="sans-serif" font-size="14" font-weight="bold" lengthAdjust="spacing" textLength="98" x="801" y="124.8857">+endgame()</text><text fill="#000000" font-family="sans-serif" font-size="14" font-weight="bold" lengthAdjust="spacing" textLength="105" x="801" y="141.1826">+endRound()</text><text fill="#000000" font-family="sans-serif" font-size="14" font-weight="bold" lengthAdjust="spacing" textLength="296" x="801" y="157.4795">+getAvailableColors() : GameColor[*]</text><text fill="#000000" font-family="sans-serif" font-size="14" font-weight="bold" lengthAdjust="spacing" textLength="246" x="801" y="173.7764">+verifyCurrentLine() : Boolean</text><text fill="#000000" font-family="sans-serif" font-size="14" font-weight="bold" lengthAdjust="spacing" textLength="175" x="801" y="190.0732">+nextLine() : Boolean</text><text fill="#000000" font-family="sans-serif" font-size="14" font-weight="bold" lengthAdjust="spacing" textLength="488" x="801" y="206.3701">+setCurrentLineCellColor(color : GameColor, index : Integer)</text><text fill="#000000" font-family="sans-serif" font-size="14" font-weight="bold" lengthAdjust="spacing" textLength="308" x="801" y="222.667">+getCurrentLineWellPlaced() : Integer</text><text fill="#000000" font-family="sans-serif" font-size="14" font-weight="bold" lengthAdjust="spacing" textLength="314" x="801" y="238.9639">+getCurrentLineWellChosen() : Integer</text><text fill="#000000" font-family="sans-serif" font-size="14" font-weight="bold" lengthAdjust="spacing" textLength="315" x="801" y="255.2607">+getCurrentLineWrongColor() : Integer</text><text fill="#000000" font-family="sans-serif" font-size="14" font-weight="bold" lengthAdjust="spacing" textLength="347" x="801" y="271.5576">+getCurrentGameCluesMode() : CluesMode</text><text fill="#000000" font-family="sans-serif" font-size="14" font-weight="bold" lengthAdjust="spacing" textLength="430" x="801" y="287.8545">+setCurrentGameCluesMode(cluesMode : CluesMode)</text></g><!--link MasterMindBoard to MasterMindLine--><g id="link_MasterMindBoard_MasterMindLine"><path codeLine="52" d="M659,950.29 C659,950.29 659,973.64 659,984.53 " fill="none" id="MasterMindBoard-MasterMindLine" style="stroke:#181818;stroke-width:1.0;"/><polygon fill="none" points="659,938.29,655,944.29,659,950.29,663,944.29,659,938.29" style="stroke:#181818;stroke-width:1.0;"/><polygon fill="#181818" points="659,997.66,663,988.66,659,992.66,655,988.66,659,997.66" style="stroke:#181818;stroke-width:1.0;"/><line style="stroke:#181818;stroke-width:1.0;" x1="659" x2="659" y1="992.66" y2="984.66"/><text fill="#000000" font-family="sans-serif" font-size="13" lengthAdjust="spacing" textLength="128" x="526.5" y="956.4915">-secretCombination</text><text fill="#000000" font-family="sans-serif" font-size="13" lengthAdjust="spacing" textLength="8" x="588.5" y="971.6243"> </text><ellipse cx="569" cy="982.3231" fill="#000000" rx="2.5" ry="2.5" style="stroke:#000000;stroke-width:0.0;"/><text fill="#000000" font-family="sans-serif" font-size="13" lengthAdjust="spacing" textLength="42" x="575.5" y="986.7572">-board</text></g><!--link MasterMindBoard to GameColor--><g id="link_MasterMindBoard_GameColor"><path codeLine="53" d="M454.2546,946.8614 C454.2546,946.8614 426.78,979.84 417,998 C378.45,1069.59 375.2,1161.78 380.92,1233.65 " fill="none" id="MasterMindBoard-GameColor" style="stroke:#181818;stroke-width:1.0;"/><polygon fill="none" points="462.56,938.2,455.5202,939.7622,454.2546,946.8614,461.2944,945.2992,462.56,938.2" style="stroke:#181818;stroke-width:1.0;"/><polygon fill="#181818" points="382.09,1246.82,385.2829,1237.5031,381.6502,1241.8394,377.3139,1238.2067,382.09,1246.82" style="stroke:#181818;stroke-width:1.0;"/><line style="stroke:#181818;stroke-width:1.0;" x1="381.6502" x2="380.94" y1="1241.8394" y2="1233.87"/><ellipse cx="264.0154" cy="1231.3566" fill="#000000" rx="2.5" ry="2.5" style="stroke:#000000;stroke-width:0.0;"/><text fill="#000000" font-family="sans-serif" font-size="13" lengthAdjust="spacing" textLength="106" x="270.5154" y="1235.7907">-availableColors</text></g><!--link MasterMindGame to CluesMode--><g id="link_MasterMindGame_CluesMode"><path codeLine="73" d="M263.2379,646.5697 C263.2379,646.5697 211.78,681.34 189,700 C169.78,715.74 151.65,735.75 136.37,754.81 " fill="none" id="MasterMindGame-CluesMode" style="stroke:#181818;stroke-width:1.0;"/><polygon fill="none" points="273.37,640.14,266.1607,639.9775,263.2379,646.5697,270.4472,646.7322,273.37,640.14" style="stroke:#181818;stroke-width:1.0;"/><polygon fill="#181818" points="128.19,765.27,136.8894,760.6526,131.2738,761.3342,130.5921,755.7186,128.19,765.27" style="stroke:#181818;stroke-width:1.0;"/><line style="stroke:#181818;stroke-width:1.0;" x1="131.2738" x2="136.2" y1="761.3342" y2="755.025"/><text fill="#000000" font-family="sans-serif" font-size="13" lengthAdjust="spacing" textLength="86" x="41.3175" y="754.4693">1 -cluesMode</text></g><!--link MasterMindGame to MasterMindBoard--><g id="link_MasterMindGame_MasterMindBoard"><path codeLine="74" d="M602.4319,651.4916 C602.4319,651.4916 610.73,675.93 614.62,687.37 " fill="none" id="MasterMindGame-MasterMindBoard" style="stroke:#181818;stroke-width:1.0;"/><polygon fill="none" points="598.57,640.13,596.7137,647.0981,602.4319,651.4916,604.2881,644.5235,598.57,640.13" style="stroke:#181818;stroke-width:1.0;"/><polygon fill="#181818" points="618.81,699.71,619.7008,689.9015,617.2009,694.976,612.1264,692.4761,618.81,699.71" style="stroke:#181818;stroke-width:1.0;"/><line style="stroke:#181818;stroke-width:1.0;" x1="617.2009" x2="614.63" y1="694.976" y2="687.405"/><text fill="#000000" font-family="sans-serif" font-size="13" lengthAdjust="spacing" textLength="132" x="480.339" y="689.059">1 -masterMindBoard</text></g><!--link MasterMindGame to GameColor--><g id="link_MasterMindGame_GameColor"><path codeLine="75" d="M256.3318,648.6723 C256.3318,648.6723 227.6,681.64 217,700 C164.11,791.61 195.09,834.52 217,938 C241.63,1054.31 301.5,1177.72 345.88,1258.49 " fill="none" id="MasterMindGame-GameColor" style="stroke:#181818;stroke-width:1.0;"/><polygon fill="none" points="264.85,640.22,257.7735,641.6067,256.3318,648.6723,263.4083,647.2855,264.85,640.22" style="stroke:#181818;stroke-width:1.0;"/><polygon fill="#181818" points="352.31,1270.1,351.4474,1260.289,349.8869,1265.7264,344.4495,1264.1659,352.31,1270.1" style="stroke:#181818;stroke-width:1.0;"/><line style="stroke:#181818;stroke-width:1.0;" x1="349.8869" x2="346.01" y1="1265.7264" y2="1258.725"/><ellipse cx="232.0484" cy="1256.3462" fill="#000000" rx="2.5" ry="2.5" style="stroke:#000000;stroke-width:0.0;"/><text fill="#000000" font-family="sans-serif" font-size="13" lengthAdjust="spacing" textLength="106" x="238.5484" y="1260.7803">-availableColors</text></g><!--link MasterMindLine to GameColor--><g id="link_MasterMindLine_GameColor"><path codeLine="90" d="M555.096,1195.4059 C555.096,1195.4059 484.25,1264.88 455.36,1293.22 " fill="none" id="MasterMindLine-GameColor" style="stroke:#181818;stroke-width:1.0;"/><polygon fill="none" points="563.66,1187,556.5761,1188.3483,555.096,1195.4059,562.18,1194.0576,563.66,1187" style="stroke:#181818;stroke-width:1.0;"/><polygon fill="#181818" points="445.85,1302.55,455.0776,1299.1075,449.4211,1299.0504,449.4782,1293.3938,445.85,1302.55" style="stroke:#181818;stroke-width:1.0;"/><line style="stroke:#181818;stroke-width:1.0;" x1="449.4211" x2="455.135" y1="1299.0504" y2="1293.45"/><ellipse cx="459.0445" cy="1289.2201" fill="#000000" rx="2.5" ry="2.5" style="stroke:#000000;stroke-width:0.0;"/><text fill="#000000" font-family="sans-serif" font-size="13" lengthAdjust="spacing" textLength="35" x="465.5445" y="1293.6542">-cells</text></g><!--link MasterMindLine to CellInfo--><g id="link_MasterMindLine_CellInfo"><path codeLine="91" d="M659,1199 C659,1199 659,1250.82 659,1273.92 " fill="none" id="MasterMindLine-CellInfo" style="stroke:#181818;stroke-width:1.0;"/><polygon fill="none" points="659,1187,655,1193,659,1199,663,1193,659,1187" style="stroke:#181818;stroke-width:1.0;"/><polygon fill="#181818" points="659,1287.17,663,1278.17,659,1282.17,655,1278.17,659,1287.17" style="stroke:#181818;stroke-width:1.0;"/><line style="stroke:#181818;stroke-width:1.0;" x1="659" x2="659" y1="1282.17" y2="1274.17"/><ellipse cx="588.5625" cy="1272.1844" fill="#000000" rx="2.5" ry="2.5" style="stroke:#000000;stroke-width:0.0;"/><text fill="#000000" font-family="sans-serif" font-size="13" lengthAdjust="spacing" textLength="60" x="595.0625" y="1276.6185">-cellInfos</text></g><!--link GameMasterController to StartWindow--><g id="link_GameMasterController_StartWindow"><path codeLine="126" d="M1391.79,304.8 C1391.79,304.8 1402.53,319.97 1407,327 C1436.51,373.43 1458,433.97 1469.47,470.86 " fill="none" id="GameMasterController-StartWindow" style="stroke:#181818;stroke-width:1.0;"/><polygon fill="none" points="1384.59,295.2,1384.99,302.4,1391.79,304.8,1391.39,297.6,1384.59,295.2" style="stroke:#181818;stroke-width:1.0;"/><polygon fill="#181818" points="1473.38,483.77,1474.6077,473.998,1471.9347,478.9834,1466.9492,476.3105,1473.38,483.77" style="stroke:#181818;stroke-width:1.0;"/><line style="stroke:#181818;stroke-width:1.0;" x1="1471.9347" x2="1469.615" y1="478.9834" y2="471.325"/><text fill="#000000" font-family="sans-serif" font-size="13" lengthAdjust="spacing" textLength="99" x="1359.9277" y="472.9223">1 -startWindow</text></g><!--link GameMasterController to GameWindow--><g id="link_GameMasterController_GameWindow"><path codeLine="127" d="M1290.2201,306.9109 C1290.2201,306.9109 1316.92,432.87 1324.98,470.9 " fill="none" id="GameMasterController-GameWindow" style="stroke:#181818;stroke-width:1.0;"/><polygon fill="none" points="1287.74,295.17,1285.0664,301.8672,1290.2201,306.9109,1292.8937,300.2138,1287.74,295.17" style="stroke:#181818;stroke-width:1.0;"/><polygon fill="#181818" points="1327.73,483.86,1329.7732,474.2254,1326.6914,478.9691,1321.9477,475.8872,1327.73,483.86" style="stroke:#181818;stroke-width:1.0;"/><line style="stroke:#181818;stroke-width:1.0;" x1="1326.6914" x2="1325.04" y1="478.9691" y2="471.145"/><text fill="#000000" font-family="sans-serif" font-size="13" lengthAdjust="spacing" textLength="106" x="1205.6228" y="472.8488">1 -gameWindow</text></g><!--link GameMasterController to EndWindow--><g id="link_GameMasterController_EndWindow"><path codeLine="128" d="M1231.7799,306.9109 C1231.7799,306.9109 1205.08,432.87 1197.02,470.9 " fill="none" id="GameMasterController-EndWindow" style="stroke:#181818;stroke-width:1.0;"/><polygon fill="none" points="1234.26,295.17,1229.1063,300.2138,1231.7799,306.9109,1236.9336,301.8672,1234.26,295.17" style="stroke:#181818;stroke-width:1.0;"/><polygon fill="#181818" points="1194.27,483.86,1200.0523,475.8872,1195.3086,478.9691,1192.2268,474.2254,1194.27,483.86" style="stroke:#181818;stroke-width:1.0;"/><line style="stroke:#181818;stroke-width:1.0;" x1="1195.3086" x2="1196.96" y1="478.9691" y2="471.145"/><text fill="#000000" font-family="sans-serif" font-size="13" lengthAdjust="spacing" textLength="93" x="1089.3928" y="472.8488">1 -endWindow</text></g><!--link GameMasterController to MasterMindGame--><g id="link_GameMasterController_MasterMindGame"><path codeLine="129" d="M983.7509,300.178 C983.7509,300.178 892.85,343.2 848.34,364.25 " fill="none" id="GameMasterController-MasterMindGame" style="stroke:#181818;stroke-width:1.0;"/><polygon fill="none" points="994.6,295.05,987.4661,293.9976,983.7509,300.178,990.8848,301.2304,994.6,295.05" style="stroke:#181818;stroke-width:1.0;"/><polygon fill="#181818" points="836.45,369.88,846.2962,369.6504,840.9705,367.7433,842.8775,362.4176,836.45,369.88" style="stroke:#181818;stroke-width:1.0;"/><line style="stroke:#181818;stroke-width:1.0;" x1="840.9705" x2="848.195" y1="367.7433" y2="364.325"/><text fill="#000000" font-family="sans-serif" font-size="13" lengthAdjust="spacing" textLength="54" x="796.4746" y="359.1386">1 -game</text></g><!--SRC=[ZLPjRzew5FxEhx3o2LQGThyYX4JJh1TT21NfL5NRL9d4Oz6CNTbEEsxL_pxR8RPZd52G23xdEIy-FkU9-U-IF4C63u2B8qRobvMvg0vum8qcnv3pXP2QNINGCgSaA_z7uBCF-KA9oBINQugBmU0Pvh_X7e43BH0Ul0s0_21I7K0qcwddVFwTn0ZZ9Vb98m0vQ1OQMUFLvo5PhPxkLeiukJ6osytcvYdUh3PR8qetzqztsoHBqdj7bYPwyJu8XySLuckPNns_MNa998liyMczkKcC95ujicmPjuNfrtMoTOKTGM_X0SKKKwQ3cfKNTElkTfiagLbThxxQe8-oE9i7izni5-cjrTujq_zSBu-sgFykxvFEEkdp16l81MBhaXJN5BB2It22Io8phuW0Kx0a0kqHQojrcmHqUSKO8c8b8G7rrMoMCmG5ci-z18QWyJez6Os1ISAAu0iiCTpXkgnSXbWm1e-haekPgVR8nYFeZyvbE9BGQqenWiHgNn0hVnvZct8OjaSYGp9l4TF3hYHGb9HefDs3CcuP-4vxe4jIe3y-_gno4gWBTURhswSVjlnxH12JzGtaUmxI_fGBVjBA3j5Fxsm0dKpc89fmt-bt-Vq49Zi5Ya9R33kI9juvHiwe19jKgRqU1HC0o6vBgo9GBgNaEMMeGqTsz-pOeUjfRwNELPPTiw40pnWU4KjbnXAGIMebUwllcO20tVXiXsERdXNPbEoaw1qsov6JW6maF_9e6g830r-q3qltfpalj_t0LVLSgEvJbH-sWzOjfmRLk3C-U12RebUvTr9uId7o7gh-5PVzsJ3zC6_-IQYHZbmkR3VOgJt_aInctXtjzqON_j0kNnGgPz0sC0eN9i7CbiFMW3kysK-scc1Sk4EMeER3uTcSJzlsGP84YlJaIrwdFYmLfvaGRhyu5jorq3qyDR0nQBje1tgGPdSOvgW8asM3YNzHZaWFXb6oh-DtObIA7Jr_raNwjMTEDbUMKNldVLXrF-AHkIczsslMIubUJxUikXyo0Pbua5xegzCCxmv2XUq59AG8w9sWyZ8e6CLO5kJDSrpl8hQ0TaFAerNvoG5MuA5xU1XM9F-bnTryHyA4vyay3Xu7cTcDZKYnz_EHCfzazAb_cFEQgRbuYm3zTn4z3TQ7DnXkzDDeXFVOldfyP4uy-AMHSU4VcPuQhfCtn3no2JbOWZR-Cf67cjBICxVJ4fsDJh_ftenHv8zKlo5gnYlo9krolCY_-0pU_m80]--></g></svg>